<svg xmlns="http://www.w3.org/2000/svg" viewBox="0 0 40 35.1" xml:space="preserve"><linearGradient id="a" gradientUnits="userSpaceOnUse" x1="23.215" y1="35.553" x2="16.755" y2="-1.082"><stop offset="0" style="stop-color:white"/><stop offset=".215" style="stop-color:white"/><stop offset="1" style="stop-color:white"/></linearGradient><path d="M19.9 32.9h8.8v1.7l6.6-3.8-6.6-3.8v1.7h-8.9c-3.1 0-6.2-1.2-8.4-3.5C9.2 23.1 7.9 20 8 16.9c0-2.7.9-5.3 2.6-7.4h-5c-1.2 2.3-1.8 4.8-1.8 7.4 0 8.8 7.3 16 16.1 16m0-32.1H6.1l2.7 2.1-2.7 2H20c6.6 0 11.9 5.3 11.9 11.9 0 2.8-1 5.5-2.7 7.6h4.9c1.2-2.3 1.9-4.9 1.9-7.5C36 8 28.8.8 19.9.8" style="fill:url(#a)"/><linearGradient id="b" gradientUnits="userSpaceOnUse" x1="17.547" y1="25.517" x2="23.238" y2="9.882"><stop offset="0" style="stop-color:white"/><stop offset=".215" style="stop-color:white"/><stop offset="1" style="stop-color:white"/></linearGradient><path d="M23.9 18.6c.6-.4 1.1-.8 1.5-1.5.5-.8.8-1.7.8-2.7s-.2-1.9-.7-2.7c-.5-.7-1.1-1.3-1.9-1.7s-1.8-.6-2.9-.6h-6.3v14.9h4v-5h1.8l2.6 5H27zm-5.5-5.8h1.9c.6 0 1 .1 1.3.4s.5.7.5 1.2-.1.9-.4 1.2-.7.4-1.3.4h-2z" style="fill:url(#b)"/></svg>
